<svg xmlns="http://www.w3.org/2000/svg" xmlns:xlink="http://www.w3.org/1999/xlink" viewBox="0 0 500 500"><defs><clipPath id="freepik--clip-path--inject-1--inject-84"><path d="M123.3,226.88s-1.69-8.95-1.69-12.09,6-22.74,6-22.74-4.69-6.76-5.08-7.26,0-1.45,1-.72a10.68,10.68,0,0,1,1.93,2.18l-2.66-5.33s0-1.29.92-1,3.19,4.44,3.19,4.44l-2.66-6.05a1.09,1.09,0,0,1,1.68-.75c.77.43,2.92,4.87,2.92,4.87l-.73-4.6s1-1.61,1.94.48c.46,1,2.41,8,2.41,8l3.43-1.72a1.09,1.09,0,0,1,1.44.44h0a1.1,1.1,0,0,1-.24,1.38c-.91.76-2.43,2.06-2.93,2.56a36.41,36.41,0,0,0-2.42,3.14l-1.22,23.24,1.22,10.62Z" style="fill:#fff;stroke:#263238;stroke-linecap:round;stroke-linejoin:round"></path></clipPath><clipPath id="freepik--clip-path-2--inject-1--inject-84"><path d="M136.32,256.28s8.77,9.13,9.06,10.79-20.67,28.7-23.84,31.35-9.74,9.23-9.74,9.23l-19-10.53S115.7,262.3,117,259.4s5-10.91,5-10.91.07-10.21-.43-18.17.3-11.47.72-12.66,4.09-2.1,6.79-1.58,2.37.84,2.37.84,3,14.85,3.14,15.58S136.32,256.28,136.32,256.28Z" style="fill:#fff;stroke:#263238;stroke-linecap:round;stroke-linejoin:round"></path></clipPath><clipPath id="freepik--clip-path-3--inject-1--inject-84"><path d="M128.87,277.22s5.78,9.4,8.52,14.82,6.36,13.39,9.53,13.85,5-4.23,5.18-5.95-2.37-5.06-3.42-12.11-3.3-20.76-3.3-20.76l-2.2-2.56" style="fill:#fff;stroke:#263238;stroke-linecap:round;stroke-linejoin:round"></path></clipPath><clipPath id="freepik--clip-path-4--inject-1--inject-84"><path d="M132.39,221.89l-1-5s.34-.32-2.37-.84-8.39.07-8.82,1.26c-.25.72-1.15,2.89,1.22,5.56A14,14,0,0,1,132.39,221.89Z" style="fill:#fff;stroke:#263238;stroke-linecap:round;stroke-linejoin:round"></path></clipPath></defs><!--Responsive--><g id="freepik--Shadow--inject-1--inject-84"><ellipse cx="257.28" cy="405.44" rx="213.28" ry="7.38" style="fill:#FFC25C"></ellipse><ellipse cx="257.28" cy="405.44" rx="213.28" ry="7.38" style="fill:#fff;opacity:0.5"></ellipse></g><g id="freepik--device-2--inject-1--inject-84"><rect x="383.53" y="262.76" width="78.63" height="141.7" rx="6.75" style="fill:#263238;stroke:#263238;stroke-miterlimit:10"></rect><path d="M428.28,271.23h-9.79a1,1,0,0,1-1-1h0a1,1,0,0,1,1-1h9.79a1,1,0,0,1,1,1h0A1,1,0,0,1,428.28,271.23Z" style="fill:#fff"></path><path d="M457.19,391.8H388.5V271.34h16.28l1.83,1.52a3.58,3.58,0,0,0,2.28.82h28.72a3.58,3.58,0,0,0,2.36-.88l1.65-1.46h15.57Z" style="fill:#FFC25C;stroke:#263238;stroke-linecap:round;stroke-linejoin:round"></path><path d="M425,395.51a1.57,1.57,0,1,0-1.57,1.56A1.56,1.56,0,0,0,425,395.51Z" style="fill:#fff"></path><line x1="453.5" y1="367.46" x2="392.46" y2="367.46" style="fill:none;stroke:#263238;stroke-linecap:round;stroke-linejoin:round"></line><line x1="453.5" y1="372.66" x2="392.46" y2="372.66" style="fill:none;stroke:#263238;stroke-linecap:round;stroke-linejoin:round"></line><line x1="453.5" y1="377.86" x2="392.46" y2="377.86" style="fill:none;stroke:#263238;stroke-linecap:round;stroke-linejoin:round"></line><line x1="453.5" y1="383.06" x2="392.46" y2="383.06" style="fill:none;stroke:#263238;stroke-linecap:round;stroke-linejoin:round"></line><line x1="453.5" y1="388.26" x2="392.46" y2="388.26" style="fill:none;stroke:#263238;stroke-linecap:round;stroke-linejoin:round"></line><rect x="392.5" y="279.59" width="61.28" height="13.17" rx="1.75" style="fill:#263238;stroke:#263238;stroke-linecap:round;stroke-linejoin:round"></rect><rect x="392" y="296.36" width="61.77" height="13.16" rx="1.75" style="fill:#fff;stroke:#263238;stroke-linecap:round;stroke-linejoin:round"></rect><rect x="392" y="315.6" width="61.77" height="13.17" rx="1.75" style="fill:#fff;stroke:#263238;stroke-linecap:round;stroke-linejoin:round"></rect><rect x="392" y="332.11" width="61.59" height="32.15" rx="3.52" style="fill:#263238;stroke:#263238;stroke-linecap:round;stroke-linejoin:round"></rect><path d="M430.42,340.25a4.57,4.57,0,1,0-4.57,4.57A4.57,4.57,0,0,0,430.42,340.25Z" style="fill:#fff;stroke:#263238;stroke-linecap:round;stroke-linejoin:round"></path><path d="M395.59,364.26H450c2,0,3.59-1.09,3.59-2.43V350.41l-17.19-8.27-12.25,14.17L414,349.4l-20.13,14.53A4.81,4.81,0,0,0,395.59,364.26Z" style="fill:#fff;stroke:#263238;stroke-linecap:round;stroke-linejoin:round"></path><path d="M409.33,228.52h-6v-7L385.19,232l18.13,10.47v-7h2.51v15.34h7V232A3.5,3.5,0,0,0,409.33,228.52Z" style="fill:#263238"></path></g><g id="freepik--device-1--inject-1--inject-84"><path d="M272.42,372.64v-23.7h-69.8v23.7a34.31,34.31,0,0,1-7.41,21.3l-3.06,3.86h90.74l-3.05-3.86A34.32,34.32,0,0,1,272.42,372.64Z" style="fill:#fff;stroke:#263238;stroke-linecap:round;stroke-linejoin:round;stroke-width:1.0954300000000001px"></path><path d="M198.33,389.23h78.38a34.34,34.34,0,0,1-4.29-16.59v-23.7h-69.8v23.7A34.22,34.22,0,0,1,198.33,389.23Z" style="fill:#FFC25C;mix-blend-mode:multiply"></path><rect x="202.62" y="352.5" width="69.8" height="10.01" style="fill:#263238;stroke:#263238;stroke-linecap:round;stroke-linejoin:round;stroke-width:1.0954300000000001px"></rect><rect x="97.25" y="146" width="280.55" height="210.41" rx="9.29" style="fill:#263238;stroke:#263238;stroke-linecap:round;stroke-linejoin:round;stroke-width:1.0954300000000001px"></rect><path d="M97.25,323.7H377.8a0,0,0,0,1,0,0v23.41a9.29,9.29,0,0,1-9.29,9.29h-262a9.29,9.29,0,0,1-9.29-9.29V323.7a0,0,0,0,1,0,0Z" style="fill:#fff;stroke:#263238;stroke-linecap:round;stroke-linejoin:round;stroke-width:1.0954300000000001px"></path><rect x="111.36" y="159.09" width="252.32" height="148.65" style="fill:#FFC25C;stroke:#263238;stroke-linecap:round;stroke-linejoin:round;stroke-width:1.0954300000000001px"></rect><path d="M242.7,340.06a5.18,5.18,0,1,0-5.18,5.17A5.18,5.18,0,0,0,242.7,340.06Z" style="fill:#263238;stroke:#263238;stroke-linecap:round;stroke-linejoin:round;stroke-width:1.0954300000000001px"></path><rect x="192.15" y="397.8" width="90.76" height="4.23" style="fill:#fff;stroke:#263238;stroke-linecap:round;stroke-linejoin:round;stroke-width:1.0954300000000001px"></rect><rect x="130.46" y="175.74" width="220.93" height="22.36" rx="3.52" style="fill:#263238;stroke:#263238;stroke-linecap:round;stroke-linejoin:round"></rect><rect x="129.38" y="240.7" width="64.25" height="49.51" rx="3.52" style="fill:#263238;stroke:#263238;stroke-linecap:round;stroke-linejoin:round"></rect><path d="M170.9,251.61a5.59,5.59,0,1,0-5.59,5.59A5.59,5.59,0,0,0,170.9,251.61Z" style="fill:#fff;stroke:#263238;stroke-linecap:round;stroke-linejoin:round"></path><path d="M133.12,290.21h56.76a3.75,3.75,0,0,0,3.75-3.75V268.88L175.7,256.14,162.92,278l-10.65-10.65-21,22.39A3.73,3.73,0,0,0,133.12,290.21Z" style="fill:#fff;stroke:#263238;stroke-linecap:round;stroke-linejoin:round"></path><rect x="132.04" y="206.62" width="98.47" height="22.36" rx="3.52" style="fill:#fff;stroke:#263238;stroke-linecap:round;stroke-linejoin:round"></rect><rect x="252.93" y="206.62" width="98.47" height="22.36" rx="3.52" style="fill:#fff;stroke:#263238;stroke-linecap:round;stroke-linejoin:round"></rect><line x1="349.77" y1="241.76" x2="209.86" y2="241.76" style="fill:none;stroke:#263238;stroke-linecap:round;stroke-linejoin:round"></line><line x1="349.77" y1="251.34" x2="209.86" y2="251.34" style="fill:none;stroke:#263238;stroke-linecap:round;stroke-linejoin:round"></line><line x1="349.77" y1="260.93" x2="209.86" y2="260.93" style="fill:none;stroke:#263238;stroke-linecap:round;stroke-linejoin:round"></line><line x1="349.77" y1="270.51" x2="209.86" y2="270.51" style="fill:none;stroke:#263238;stroke-linecap:round;stroke-linejoin:round"></line><line x1="349.77" y1="280.09" x2="209.86" y2="280.09" style="fill:none;stroke:#263238;stroke-linecap:round;stroke-linejoin:round"></line><line x1="349.77" y1="289.68" x2="209.86" y2="289.68" style="fill:none;stroke:#263238;stroke-linecap:round;stroke-linejoin:round"></line><rect x="128.13" y="168.64" width="227.87" height="132.04" style="fill:none;stroke:#fff;stroke-linecap:round;stroke-linejoin:round;stroke-width:2px"></rect><path d="M132.54,168.64a4.41,4.41,0,1,0-4.41,4.41A4.4,4.4,0,0,0,132.54,168.64Z" style="fill:#fff"></path><path d="M360.41,168.64a4.41,4.41,0,1,0-4.4,4.41A4.4,4.4,0,0,0,360.41,168.64Z" style="fill:#fff"></path><path d="M244.43,168.64a4.41,4.41,0,1,0-4.41,4.41A4.4,4.4,0,0,0,244.43,168.64Z" style="fill:#fff"></path><path d="M244.43,300.84a4.41,4.41,0,1,0-4.41,4.4A4.4,4.4,0,0,0,244.43,300.84Z" style="fill:#fff"></path><path d="M132.54,300.84a4.41,4.41,0,1,0-4.41,4.4A4.4,4.4,0,0,0,132.54,300.84Z" style="fill:#fff"></path><path d="M360.41,299.24a4.41,4.41,0,1,0-4.4,4.4A4.4,4.4,0,0,0,360.41,299.24Z" style="fill:#fff"></path></g><g id="freepik--Character--inject-1--inject-84"><path d="M143.68,249.33a56.29,56.29,0,0,0-4.19,4.29,21.08,21.08,0,0,0-2.74,3.93s-.45-.61-2.83-3.91-2.14-5.88-2.14-5.88l3.72-3.57S142.71,245.2,143.68,249.33Z" style="fill:#fff;stroke:#263238;stroke-linecap:round;stroke-linejoin:round"></path><path d="M149.89,234.33s.37,3,1.22,3.3,3.71-.35,2.95,1.77a5.92,5.92,0,0,1-2.76,3.08s-.93,7.32-1.52,8.3-1.32,1.68-3.87.78l-4.66-1.66a18.51,18.51,0,0,1-1.85-.18c-1.14-.17-1.14,0-2.58-2.71s-3-1-1.76-4.57,2.33-5.87,4.85-7.6S149.89,234.33,149.89,234.33Z" style="fill:#fff;stroke:#263238;stroke-linecap:round;stroke-linejoin:round"></path><path d="M150,239c.06.86-.07,1.58-.3,1.6s-.47-.67-.54-1.54.07-1.58.3-1.6S149.9,238.12,150,239Z" style="fill:#263238"></path><path d="M123.3,226.88s-1.69-8.95-1.69-12.09,6-22.74,6-22.74-4.69-6.76-5.08-7.26,0-1.45,1-.72a10.68,10.68,0,0,1,1.93,2.18l-2.66-5.33s0-1.29.92-1,3.19,4.44,3.19,4.44l-2.66-6.05a1.09,1.09,0,0,1,1.68-.75c.77.43,2.92,4.87,2.92,4.87l-.73-4.6s1-1.61,1.94.48c.46,1,2.41,8,2.41,8l3.43-1.72a1.09,1.09,0,0,1,1.44.44h0a1.1,1.1,0,0,1-.24,1.38c-.91.76-2.43,2.06-2.93,2.56a36.41,36.41,0,0,0-2.42,3.14l-1.22,23.24,1.22,10.62Z" style="fill:#fff"></path><g style="clip-path:url(#freepik--clip-path--inject-1--inject-84)"><path d="M125.54,226.62c0-2.58,0-5-.12-6.68-.29-6.36,2.24-27.89,2.24-27.89s-6,19.59-6,22.74,1.69,12.09,1.69,12.09Z" style="fill:#FFC25C"></path><path d="M125.54,226.62c0-2.58,0-5-.12-6.68-.29-6.36,2.24-27.89,2.24-27.89s-6,19.59-6,22.74,1.69,12.09,1.69,12.09Z" style="fill:#fff;opacity:0.5"></path></g><path d="M123.3,226.88s-1.69-8.95-1.69-12.09,6-22.74,6-22.74-4.69-6.76-5.08-7.26,0-1.45,1-.72a10.68,10.68,0,0,1,1.93,2.18l-2.66-5.33s0-1.29.92-1,3.19,4.44,3.19,4.44l-2.66-6.05a1.09,1.09,0,0,1,1.68-.75c.77.43,2.92,4.87,2.92,4.87l-.73-4.6s1-1.61,1.94.48c.46,1,2.41,8,2.41,8l3.43-1.72a1.09,1.09,0,0,1,1.44.44h0a1.1,1.1,0,0,1-.24,1.38c-.91.76-2.43,2.06-2.93,2.56a36.41,36.41,0,0,0-2.42,3.14l-1.22,23.24,1.22,10.62Z" style="fill:none;stroke:#263238;stroke-linecap:round;stroke-linejoin:round"></path><path d="M144.35,304a8,8,0,0,0,5.13,2.55c3.14.21,29.91-4.65,29.91-4.65s6.44,5.1,6.91,5.53,1.45.09.79-.92a10.67,10.67,0,0,0-2.05-2.07l5.14,3s1.29.13,1.11-.86-4.22-3.46-4.22-3.46l5.86,3a1.09,1.09,0,0,0,.86-1.63c-.38-.79-4.67-3.22-4.67-3.22l4.54,1s1.66-.85-.36-2c-1-.52-7.81-2.93-7.81-2.93l1.93-3.31a1.08,1.08,0,0,0-.34-1.46h0a1.09,1.09,0,0,0-1.39.15c-.82.86-2.21,2.3-2.74,2.76a37.11,37.11,0,0,1-3.3,2.21l-28.65-1-5.14-1.14Z" style="fill:#fff;stroke:#263238;stroke-linecap:round;stroke-linejoin:round"></path><path d="M136.32,256.28s8.77,9.13,9.06,10.79-20.67,28.7-23.84,31.35-9.74,9.23-9.74,9.23l-19-10.53S115.7,262.3,117,259.4s5-10.91,5-10.91.07-10.21-.43-18.17.3-11.47.72-12.66,4.09-2.1,6.79-1.58,2.37.84,2.37.84,3,14.85,3.14,15.58S136.32,256.28,136.32,256.28Z" style="fill:#fff"></path><g style="clip-path:url(#freepik--clip-path-2--inject-1--inject-84)"><path d="M137,261.88c1.16-2.89-1.45-5.2-4.92-8.1a6.12,6.12,0,0,1-2.07-6.65l-4.58-4.92s.29-15.9,0-22.27c0-1,0-2.3,0-3.85-1.63.28-3,.88-3.23,1.57-.42,1.19-1.22,4.69-.72,12.66s.43,18.17.43,18.17l-.71,1.53.42,3.76L99.1,290.52l13.3,8.39,19.09-19.38,2.25,4.17c1.56-2,3.11-4.05,4.54-6C137.25,270.2,136.48,263.15,137,261.88Z" style="fill:#FFC25C"></path><path d="M137,261.88c1.16-2.89-1.45-5.2-4.92-8.1a6.12,6.12,0,0,1-2.07-6.65l-4.58-4.92s.29-15.9,0-22.27c0-1,0-2.3,0-3.85-1.63.28-3,.88-3.23,1.57-.42,1.19-1.22,4.69-.72,12.66s.43,18.17.43,18.17l-.71,1.53.42,3.76L99.1,290.52l13.3,8.39,19.09-19.38,2.25,4.17c1.56-2,3.11-4.05,4.54-6C137.25,270.2,136.48,263.15,137,261.88Z" style="fill:#fff;opacity:0.5"></path></g><path d="M136.32,256.28s8.77,9.13,9.06,10.79-20.67,28.7-23.84,31.35-9.74,9.23-9.74,9.23l-19-10.53S115.7,262.3,117,259.4s5-10.91,5-10.91.07-10.21-.43-18.17.3-11.47.72-12.66,4.09-2.1,6.79-1.58,2.37.84,2.37.84,3,14.85,3.14,15.58S136.32,256.28,136.32,256.28Z" style="fill:none;stroke:#263238;stroke-linecap:round;stroke-linejoin:round"></path><path d="M133.64,247.54a47.3,47.3,0,0,0,2,4.28c1,1.68,2.66,2.51,2.91,3.71s1.89,5.26,1.89,5.26-5.6-2.35-8.06-5.45-2.42-8.21-2.42-8.21S132.47,246.45,133.64,247.54Z" style="fill:#fff;stroke:#263238;stroke-linecap:round;stroke-linejoin:round"></path><path d="M128.87,277.22s5.78,9.4,8.52,14.82,6.36,13.39,9.53,13.85,5-4.23,5.18-5.95-2.37-5.06-3.42-12.11-3.3-20.76-3.3-20.76l-2.2-2.56" style="fill:#fff"></path><g style="clip-path:url(#freepik--clip-path-3--inject-1--inject-84)"><path d="M137.29,269.74l-8.42,7.48s.76,1.24,1.86,3.08l.76-.77,9.84,18.22S138.43,280.37,137.29,269.74Z" style="fill:#FFC25C"></path><path d="M137.29,269.74l-8.42,7.48s.76,1.24,1.86,3.08l.76-.77,9.84,18.22S138.43,280.37,137.29,269.74Z" style="fill:#fff;opacity:0.5"></path></g><path d="M128.87,277.22s5.78,9.4,8.52,14.82,6.36,13.39,9.53,13.85,5-4.23,5.18-5.95-2.37-5.06-3.42-12.11-3.3-20.76-3.3-20.76l-2.2-2.56" style="fill:none;stroke:#263238;stroke-linecap:round;stroke-linejoin:round"></path><path d="M152.1,299.94c.1-1,.47-3.94-1.22-4.48a12.93,12.93,0,0,1-4.47,3.13,19.45,19.45,0,0,1-4.86,1.48c1.78,3.09,3.64,5.57,5.37,5.82C150.1,306.36,151.94,301.66,152.1,299.94Z" style="fill:#fff;stroke:#263238;stroke-linecap:round;stroke-linejoin:round"></path><path d="M132.39,221.89l-1-5s.34-.32-2.37-.84-8.39.07-8.82,1.26c-.25.72-1.15,2.89,1.22,5.56A14,14,0,0,1,132.39,221.89Z" style="fill:#fff"></path><g style="clip-path:url(#freepik--clip-path-4--inject-1--inject-84)"><path d="M125.47,221.47c0-.55,0-1.07,0-1.53,0-1,0-2.4,0-4-2.47.13-5,.65-5.26,1.42s-1.15,2.89,1.22,5.56A16,16,0,0,1,125.47,221.47Z" style="fill:#FFC25C"></path><path d="M125.47,221.47c0-.55,0-1.07,0-1.53,0-1,0-2.4,0-4-2.47.13-5,.65-5.26,1.42s-1.15,2.89,1.22,5.56A16,16,0,0,1,125.47,221.47Z" style="fill:#fff;opacity:0.5"></path></g><path d="M132.39,221.89l-1-5s.34-.32-2.37-.84-8.39.07-8.82,1.26c-.25.72-1.15,2.89,1.22,5.56A14,14,0,0,1,132.39,221.89Z" style="fill:none;stroke:#263238;stroke-linecap:round;stroke-linejoin:round"></path><path d="M132.82,284.57a57.71,57.71,0,0,0-9.1-6.21" style="fill:none;stroke:#263238;stroke-linecap:round;stroke-linejoin:round"></path><path d="M143.31,239.4s11.07-4.91,9.42-11.71-5.57-9.86-10-8.81-3.63,3.48-3.63,3.48-4.4-1.08-6.67,1.94a5.74,5.74,0,0,0-.69,6A12.48,12.48,0,0,0,127.9,237c-.79,4.26,5.32,11.93,6.73,12.67s3.09-1.29,3.09-1.29-1.34-4.3-.27-4.63,3,2.27,3,2.27,1,1.3,1.88-1.25A19.77,19.77,0,0,0,143.31,239.4Z" style="fill:#263238;stroke:#263238;stroke-linecap:round;stroke-linejoin:round"></path><path d="M151.33,226.14s2.12,2.84-1.53,6.5-12.08,5.35-14.15,7.49-2,7.41-2,7.41" style="fill:none;stroke:#fff;stroke-linecap:round;stroke-linejoin:round;stroke-width:0.75px"></path><path d="M143.31,239.4s-5.42,2.3-5.86,4.37" style="fill:none;stroke:#fff;stroke-linecap:round;stroke-linejoin:round;stroke-width:0.75px"></path><path d="M123.06,398l11.12,6a.7.7,0,0,1-.26,1.32l-15.07,1.46a2.29,2.29,0,0,1-2.49-2.57l.61-4.67Z" style="fill:#fff;stroke:#263238;stroke-linecap:round;stroke-linejoin:round"></path><path d="M134.27,404c-3.52.41-9,.06-12.74.68a15.21,15.21,0,0,1-5.12.23,2.28,2.28,0,0,0,2.44,1.81l15.07-1.46A.7.7,0,0,0,134.27,404Z" style="fill:#fff;stroke:#263238;stroke-linecap:round;stroke-linejoin:round"></path><path d="M67.21,397,63.6,400.6a2.06,2.06,0,0,0,0,2.94l6.65,6.38,8.15.72a1.22,1.22,0,0,0,1-2l-4.63-5.56L73,399.14Z" style="fill:#fff;stroke:#263238;stroke-linecap:round;stroke-linejoin:round"></path><path d="M79.74,409.68c-2.86-.68-7.29-1.72-8.48-1.87-1.47-.18-5.91-5.43-7.5-7.37l-.16.16a2.06,2.06,0,0,0,0,2.94l6.65,6.38,8.15.72A1.23,1.23,0,0,0,79.74,409.68Z" style="fill:#fff;stroke:#263238;stroke-linecap:round;stroke-linejoin:round"></path><path d="M116.4,302.19,98.09,289.26s-7.9,9-8.62,14c-.08.56-.14,1.15-.19,1.75a35.09,35.09,0,0,0,3.25,17.41l14.9,32.19L117,399.47l6.09-1.5-2-47.66-11.49-36.63Z" style="fill:#263238;stroke:#263238;stroke-linecap:round;stroke-linejoin:round"></path><polyline points="93.42 314.04 95.94 318.71 90.55 355.33 67.21 396.99 72.95 399.14 104.55 359.64 112.09 315.84 114.61 305.06" style="fill:#263238;stroke:#263238;stroke-linecap:round;stroke-linejoin:round"></polyline><line x1="111.42" y1="322.09" x2="107.18" y2="350.82" style="fill:none;stroke:#fff;stroke-linecap:round;stroke-linejoin:round;stroke-width:0.75px"></line><polyline points="94.11 325.35 94.44 315.88 91.18 308.7" style="fill:none;stroke:#fff;stroke-linecap:round;stroke-linejoin:round;stroke-width:0.75px"></polyline><path d="M114,301.52s-2.61,6.2-8.49,6.2" style="fill:none;stroke:#fff;stroke-linecap:round;stroke-linejoin:round;stroke-width:0.75px"></path><polyline points="110.77 299.23 107.5 302.17 107.5 304.78 102.93 303.8 105.22 310.33 98.03 355.07" style="fill:none;stroke:#fff;stroke-linecap:round;stroke-linejoin:round;stroke-width:0.75px"></polyline><line x1="97.05" y1="357.68" x2="95.42" y2="359.96" style="fill:none;stroke:#fff;stroke-linecap:round;stroke-linejoin:round;stroke-width:0.75px"></line></g></svg>